# xmcd
#
# Track frame offsets: 
#        150
#        12950
#        25352
#        36075
#        50552
#        62305
#        73930
#        85885
#        97595
#        110125
#        122912
#        134870
#        145157
#        156060
#        167807
#        182155
#        194487
#        206925
#        219287
#        233027
#        243150
#        254042
#        265935
#        277572
#
# Disc length: 3840 seconds
#
# Revision: 8
# Processed by: cddbd v1.5.2PL0 Copyright (c) Steve Scherf et al.
# Submitted via: ExactAudioCopy v1.0b1
#
DISCID=620efe18
DTITLE=Various Artist - Country U.S.A. Vol. 1 1961
DYEAR=1988
DGENRE=Oldies
TTITLE0=Patsy Cline - I Fall To Pieces
TTITLE1=Ray Price - Heart Over Mind
TTITLE2=Leroy Van Dyke - Walk On By
TTITLE3=Marty Robbins - Don't Worry
TTITLE4=Johnny Horton - Sleepy-Eyed John
TTITLE5=Skeeter Davis - My Last Date (With You)
TTITLE6=Buck Owens - Foolin' Around
TTITLE7=George Jones - The Window Up Above
TTITLE8=Bill Anderson - Po' Folks
TTITLE9=Hank Snow - Beggar To A King
TTITLE10=Kitty Wells - Heartbreak U.S.A.
TTITLE11=Don Gibson - Sweet Dreams
TTITLE12=Faron Young - Hello Walls
TTITLE13=Rusty And Doug - Louisiana Man
TTITLE14=Tex Ritter - I Dreamed Of A Hill-Billy Heaven
TTITLE15=Roy Drusky - Three Hearts In A Tangle
TTITLE16=Hank Thompson - Oklahoma Hills
TTITLE17=Patsy Cline - Crazy
TTITLE18=Jimmy Dean - Big Bad John
TTITLE19=Porter Wagoner - Your Old Love Letters
TTITLE20=George Jones - Tender Years
TTITLE21=Wanda Jackson - Right Or Wrong
TTITLE22=Don Gibson - Sea Of Heartbreak
TTITLE23=Buck Owens - Under The Influence Of Love
EXTD=ID3G:   2
EXTT0=Patsy Cline
EXTT1=Ray Price
EXTT2=Leroy Van Dyke
EXTT3=Marty Robbins
EXTT4=Johnny Horton
EXTT5=Skeeter Davis
EXTT6=Buck Owens
EXTT7=George Jones
EXTT8=Bill Anderson
EXTT9=Hank Snow
EXTT10=Kitty Wells
EXTT11=Don Gibson
EXTT12=Faron Young
EXTT13=Rusty and Doug
EXTT14=Tex Ritter
EXTT15=Roy Drusky
EXTT16=Hank Thompson
EXTT17=Patsy Cline
EXTT18=Jimmy Dean
EXTT19=Porter Wagoner
EXTT20=George Jones
EXTT21=Wanda Jackson
EXTT22=Don Gibson
EXTT23=Buck Owens
PLAYORDER=
